<?xml version="1.0" encoding="UTF-8" standalone="no"?>
<svg
   height="24px"
   viewBox="0 -960 960 960"
   width="24px"
   fill="#084887"
   version="1.1"
   id="svg1"
   sodipodi:docname="computer_sleep.svg"
   xml:space="preserve"
   inkscape:version="1.4 (e7c3feb100, 2024-10-09)"
   xmlns:inkscape="http://www.inkscape.org/namespaces/inkscape"
   xmlns:sodipodi="http://sodipodi.sourceforge.net/DTD/sodipodi-0.dtd"
   xmlns="http://www.w3.org/2000/svg"
   xmlns:svg="http://www.w3.org/2000/svg"><defs
     id="defs1" /><sodipodi:namedview
     id="namedview1"
     pagecolor="#ffffff"
     bordercolor="#000000"
     borderopacity="0.25"
     inkscape:showpageshadow="2"
     inkscape:pageopacity="0.0"
     inkscape:pagecheckerboard="0"
     inkscape:deskcolor="#d1d1d1"
     inkscape:zoom="9.0520833"
     inkscape:cx="-5.4131185"
     inkscape:cy="32.975834"
     inkscape:window-width="1806"
     inkscape:window-height="1014"
     inkscape:window-x="0"
     inkscape:window-y="0"
     inkscape:window-maximized="1"
     inkscape:current-layer="svg1" /><path
     id="path1"
     d="M 172.03125 -881.48438 C 136.69792 -881.48438 106.83333 -869.33333 82.5 -845 C 58.166667 -820.66667 46.015625 -790.80208 46.015625 -755.46875 L 46.015625 -339.53125 C 46.015625 -304.19792 58.166667 -274.33333 82.5 -250 C 106.83333 -225.66667 136.69792 -213.51562 172.03125 -213.51562 L 787.96875 -213.51562 C 823.30208 -213.51562 853.16667 -225.66667 877.5 -250 C 901.83333 -274.33333 913.98438 -304.19792 913.98438 -339.53125 L 913.98438 -755.46875 C 913.98438 -790.80208 901.83333 -820.66667 877.5 -845 C 853.16667 -869.33333 823.30208 -881.48438 787.96875 -881.48438 L 172.03125 -881.48438 z M 482.8125 -762.8125 L 623.51562 -762.8125 C 633.64027 -762.8125 642.28774 -759.27474 649.375 -752.1875 C 656.46224 -745.10018 660 -736.58002 660 -726.71875 L 660 -704.0625 C 660 -699.33754 659.17495 -694.98739 657.65625 -690.9375 C 656.13756 -686.8877 653.89676 -683.14052 650.85938 -679.76562 L 564.84375 -584.60938 L 614.45312 -584.60938 C 627.10894 -584.60929 637.8563 -580.25905 646.71875 -571.48438 C 655.57444 -562.70969 660 -551.9219 660 -539.21875 C 660 -526.50907 655.57443 -515.68637 646.71875 -506.79688 C 637.85631 -497.90067 627.10892 -493.51562 614.45312 -493.51562 L 482.8125 -493.51562 C 470.15668 -493.51563 459.40256 -497.87273 450.54688 -506.64062 C 441.68444 -515.4087 437.26562 -525.98808 437.26562 -538.51562 L 437.26562 -567.34375 C 437.26562 -572.74363 438.49696 -578.19395 440.85938 -583.59375 C 443.2218 -588.99363 446.07824 -593.68448 449.45312 -597.73438 L 516.17188 -671.71875 L 482.8125 -671.71875 C 470.15668 -671.71875 459.40256 -676.06923 450.54688 -684.84375 C 441.68444 -693.61843 437.26562 -704.32819 437.26562 -717.03125 C 437.26562 -729.74102 441.68444 -740.56363 450.54688 -749.45312 C 459.40257 -758.34924 470.15668 -762.8125 482.8125 -762.8125 z M 328.04688 -493.51562 L 414.76562 -493.51562 C 421.00414 -493.51563 426.41429 -491.3201 430.78125 -486.95312 C 435.14822 -482.58617 437.26562 -477.32632 437.26562 -471.25 L 437.26562 -457.26562 C 437.26562 -454.35429 436.79516 -451.71409 435.85938 -449.21875 C 434.9236 -446.72325 433.51218 -444.34521 431.64062 -442.26562 L 378.59375 -383.67188 L 409.21875 -383.67188 C 417.01689 -383.67187 423.6017 -381.03175 429.0625 -375.625 C 434.51912 -370.21824 437.26562 -363.5304 437.26562 -355.70312 C 437.26563 -347.87168 434.51912 -341.18061 429.0625 -335.70312 C 423.60171 -330.22155 417.0169 -327.5 409.21875 -327.5 L 328.04688 -327.5 C 320.24873 -327.5 313.65976 -330.22241 308.20312 -335.625 C 302.74233 -341.02751 300 -347.5934 300 -355.3125 L 300 -373.04688 C 300 -376.37413 300.73184 -379.71972 302.1875 -383.04688 C 303.64315 -386.37414 305.42049 -389.22333 307.5 -391.71875 L 348.59375 -437.34375 L 328.04688 -437.34375 C 320.24873 -437.34375 313.65976 -439.98396 308.20312 -445.39062 C 302.74233 -450.79729 300 -457.4071 300 -465.23438 C 300 -473.06582 302.74234 -479.75698 308.20312 -485.23438 C 313.65976 -490.71595 320.24872 -493.51562 328.04688 -493.51562 z M 57.03125 -173.51562 C 43.697917 -173.51562 32.302083 -169 22.96875 -160 C 13.635417 -151 8.984375 -139.81771 8.984375 -126.48438 C 8.984375 -113.15104 13.635417 -101.83333 22.96875 -92.5 C 32.302083 -83.166667 43.697917 -78.515625 57.03125 -78.515625 L 902.96875 -78.515625 C 916.30208 -78.515625 927.69792 -83.166667 937.03125 -92.5 C 946.36458 -101.83333 951.01563 -113.15104 951.01562 -126.48438 C 951.01562 -139.81771 946.36458 -151 937.03125 -160 C 927.69792 -169 916.30208 -173.51562 902.96875 -173.51562 L 57.03125 -173.51562 z " /></svg>
