<?xml version="1.0" encoding="UTF-8" standalone="no"?>
<!-- Created with Inkscape (http://www.inkscape.org/) -->

<svg
   width="24"
   height="24"
   viewBox="0 0 6.3499999 6.35"
   version="1.1"
   id="svg1"
   xml:space="preserve"
   inkscape:version="1.4 (e7c3feb100, 2024-10-09)"
   sodipodi:docname="spotify.svg"
   xmlns:inkscape="http://www.inkscape.org/namespaces/inkscape"
   xmlns:sodipodi="http://sodipodi.sourceforge.net/DTD/sodipodi-0.dtd"
   xmlns="http://www.w3.org/2000/svg"
   xmlns:svg="http://www.w3.org/2000/svg"><sodipodi:namedview
     id="namedview1"
     pagecolor="#ffffff"
     bordercolor="#000000"
     borderopacity="0.25"
     inkscape:showpageshadow="2"
     inkscape:pageopacity="0.0"
     inkscape:pagecheckerboard="0"
     inkscape:deskcolor="#d1d1d1"
     inkscape:document-units="mm"
     inkscape:zoom="5.8672437"
     inkscape:cx="-8.3514514"
     inkscape:cy="11.248894"
     inkscape:window-width="1806"
     inkscape:window-height="1014"
     inkscape:window-x="0"
     inkscape:window-y="0"
     inkscape:window-maximized="1"
     inkscape:current-layer="svg1" /><defs
     id="defs1" /><path
     id="path1"
     d="M 247.99999 7.9999961 C 111.09999 7.9999961 -2.4474249e-14 119.09998 0 255.99998 C 0 392.89998 111.09999 503.99997 247.99999 503.99997 C 384.89999 503.99997 495.99998 392.89998 495.99998 255.99998 C 495.99998 119.09998 384.89999 7.9999961 247.99999 7.9999961 z M 211.51041 137.40884 C 284.51041 137.40884 360.9854 152.60051 416.8854 185.20051 C 424.6854 189.70051 429.80206 195.90467 429.80206 207.80467 C 429.80206 221.40467 418.79243 231.09504 406.59243 231.09504 C 401.39243 231.09504 398.21613 229.82004 393.71613 227.22004 C 322.51613 184.72004 195.219 174.51171 112.819 197.51171 C 109.219 198.51171 104.70234 200.09504 99.902339 200.09504 C 86.702339 200.09504 76.611975 189.78176 76.611975 176.48176 C 76.611975 162.88176 85.00911 155.18593 94.00911 152.58593 C 129.20911 142.28593 168.61041 137.40884 211.51041 137.40884 z M 206.70702 222.61847 C 271.60702 222.61847 334.30571 238.70936 383.70571 268.10936 C 391.80571 272.90936 395.00779 279.10727 395.00779 287.80727 C 394.90779 298.60727 386.49243 307.30337 375.59243 307.30337 C 370.39243 307.30337 366.88123 305.00545 363.28123 303.10545 C 300.78123 266.10545 207.58619 251.22003 124.68619 273.72003 C 119.88619 275.02003 117.319 276.30337 112.819 276.30337 C 102.119 276.30337 93.403641 267.588 93.403641 256.888 C 93.403641 246.188 98.60364 239.08097 108.90364 236.18097 C 136.70364 228.38097 165.10702 222.61847 206.70702 222.61847 z M 209.37108 303.87238 C 260.16308 303.67511 309.5742 314.32029 354.1992 341.00779 C 360.2992 344.90779 363.8867 348.41691 363.8867 357.51691 C 363.8867 366.61691 356.80962 372.89581 348.70962 372.89581 C 344.50962 372.89581 341.913 371.60336 338.013 369.30336 C 275.613 331.70336 203.00598 330.10206 131.30598 344.80206 C 127.40598 345.80206 122.29843 347.3854 119.39843 347.3854 C 109.69843 347.3854 103.61588 339.70284 103.61588 331.60284 C 103.61588 321.30284 109.71874 316.41118 117.21874 314.81118 C 147.93124 308.02368 178.89589 303.99074 209.37108 303.87238 z "
     transform="matrix(0.01280242,0,0,0.01280242,0,-0.10241931)"
     style="fill:#084887;fill-opacity:1" /></svg>
