<?xml version="1.0" encoding="UTF-8" standalone="no"?>
<!-- Created with Inkscape (http://www.inkscape.org/) -->

<svg
   width="24"
   height="24"
   viewBox="0 0 6.3499999 6.35"
   version="1.1"
   id="svg1"
   xml:space="preserve"
   inkscape:version="1.4 (e7c3feb100, 2024-10-09)"
   sodipodi:docname="vlc.svg"
   xmlns:inkscape="http://www.inkscape.org/namespaces/inkscape"
   xmlns:sodipodi="http://sodipodi.sourceforge.net/DTD/sodipodi-0.dtd"
   xmlns="http://www.w3.org/2000/svg"
   xmlns:svg="http://www.w3.org/2000/svg"><sodipodi:namedview
     id="namedview1"
     pagecolor="#ffffff"
     bordercolor="#000000"
     borderopacity="0.25"
     inkscape:showpageshadow="2"
     inkscape:pageopacity="0.0"
     inkscape:pagecheckerboard="0"
     inkscape:deskcolor="#d1d1d1"
     inkscape:document-units="mm"
     inkscape:zoom="17.216862"
     inkscape:cx="7.2603242"
     inkscape:cy="21.780973"
     inkscape:window-width="1806"
     inkscape:window-height="1014"
     inkscape:window-x="0"
     inkscape:window-y="0"
     inkscape:window-maximized="1"
     inkscape:current-layer="svg1" /><defs
     id="defs1" /><style
     type="text/css"
     id="style1">
	.st0{fill-rule:evenodd;clip-rule:evenodd;}
</style><g
     style="fill:#084887;fill-opacity:1"
     id="g1"
     transform="matrix(0.234263,0,0,0.234263,-0.63005503,-0.51390597)"><path
       class="st0"
       d="m 13.6,6.6 0.9,-3.1 c 0.5,-1.6 2.8,-1.6 3.3,0 l 0.9,3.1 C 18,6.8 17.2,7 16.2,7 15.2,7 14.4,6.8 13.6,6.6 Z M 10.9,16 c 1.2,0.9 3,1.7 5.3,1.7 2.3,0 4.1,-0.9 5.3,-1.7 l -1.4,-4.8 c -0.9,0.6 -2.2,1 -3.9,1 -1.7,0 -3,-0.5 -3.9,-1 z m 11.5,2.9 0.5,1.5 c -1.5,1.1 -3.8,2.1 -6.6,2.1 -2.9,0 -5.1,-1 -6.6,-2.1 l 0.5,-1.5 H 7.9 c -0.5,0 -0.8,0.3 -1,0.7 L 4.7,28 c -0.2,0.6 0.3,1.3 1,1.3 h 21.1 c 0.7,0 1.1,-0.6 1,-1.3 l -2.3,-8.4 c -0.1,-0.4 -0.5,-0.7 -1,-0.7 z"
       id="path1"
       style="fill:#084887;fill-opacity:1" /></g></svg>
