<?xml version="1.0" encoding="UTF-8" standalone="no"?>
<svg
   height="24px"
   viewBox="0 -960 960 960"
   width="24px"
   fill="#084887"
   version="1.1"
   id="svg1"
   sodipodi:docname="wifi_off.svg"
   inkscape:version="1.4 (e7c3feb100, 2024-10-09)"
   xmlns:inkscape="http://www.inkscape.org/namespaces/inkscape"
   xmlns:sodipodi="http://sodipodi.sourceforge.net/DTD/sodipodi-0.dtd"
   xmlns="http://www.w3.org/2000/svg"
   xmlns:svg="http://www.w3.org/2000/svg">
  <defs
     id="defs1" />
  <sodipodi:namedview
     id="namedview1"
     pagecolor="#ffffff"
     bordercolor="#000000"
     borderopacity="0.25"
     inkscape:showpageshadow="2"
     inkscape:pageopacity="0.0"
     inkscape:pagecheckerboard="0"
     inkscape:deskcolor="#d1d1d1"
     showgrid="true"
     inkscape:zoom="21.221356"
     inkscape:cx="13.853968"
     inkscape:cy="12.298931"
     inkscape:window-width="1806"
     inkscape:window-height="1014"
     inkscape:window-x="0"
     inkscape:window-y="0"
     inkscape:window-maximized="1"
     inkscape:current-layer="svg1">
    <inkscape:grid
       id="grid1"
       units="px"
       originx="0"
       originy="0"
       spacingx="40"
       spacingy="40"
       empcolor="#0099e5"
       empopacity="0.30196078"
       color="#0099e5"
       opacity="0.14901961"
       empspacing="5"
       enabled="true"
       visible="true" />
  </sodipodi:namedview>
  <path
     id="path1"
     d="M 187.5 -918.98438 A 80 80 0 0 0 143.4375 -896.5625 A 80 80 0 0 0 143.4375 -783.4375 L 743.4375 -183.4375 A 80 80 0 0 0 856.5625 -183.4375 A 80 80 0 0 0 856.5625 -296.5625 L 771.71875 -381.40625 L 888.98438 -517.03125 C 898.31771 -527.69792 905.19792 -539.36458 909.53125 -552.03125 C 913.86458 -564.69792 916.01563 -577.68229 916.01562 -591.01562 C 916.01563 -606.34897 913.03125 -621.13542 907.03125 -635.46875 C 901.03125 -649.80208 892 -662.65103 880 -673.98438 C 822.66667 -719.31771 760.03125 -754.53125 692.03125 -779.53125 C 624.03125 -804.53125 553.33333 -817.03125 480 -817.03125 C 435.69323 -817.03125 392.35749 -812.3061 350 -803.125 L 256.5625 -896.5625 A 80 80 0 0 0 187.5 -918.98438 z M 134.21875 -712.65625 C 115.6609 -700.68042 97.557525 -687.86707 80 -673.98438 C 68 -662.65103 58.96875 -649.80208 52.96875 -635.46875 C 46.96875 -621.13542 43.984375 -606.34897 43.984375 -591.01562 C 43.984375 -577.68229 46.135417 -564.69792 50.46875 -552.03125 C 54.802083 -539.36458 61.682292 -527.69792 71.015625 -517.03125 L 385 -153.98438 C 397.66667 -139.3177 412.31771 -128.34897 428.98438 -121.01562 C 445.65104 -113.68229 462.66667 -110 480 -110 C 497.33333 -110 514.34897 -113.68229 531.01562 -121.01562 C 547.68229 -128.34897 562.33333 -139.3177 575 -153.98438 L 629.6875 -217.1875 L 134.21875 -712.65625 z " />
</svg>
